<?xml version="1.0" encoding="UTF-8"?>
<!DOCTYPE svg PUBLIC "-//W3C//DTD SVG 1.1//EN" "http://www.w3.org/Graphics/SVG/1.1/DTD/svg11.dtd">
<svg xmlns="http://www.w3.org/2000/svg" version="1.1" width="1600px" height="463px" style="shape-rendering:geometricPrecision; text-rendering:geometricPrecision; image-rendering:optimizeQuality; fill-rule:evenodd; clip-rule:evenodd" xmlns:xlink="http://www.w3.org/1999/xlink">
<g><path style="opacity:1" fill="#fefefe" d="M -0.5,-0.5 C 532.833,-0.5 1066.17,-0.5 1599.5,-0.5C 1599.5,153.833 1599.5,308.167 1599.5,462.5C 1066.17,462.5 532.833,462.5 -0.5,462.5C -0.5,308.167 -0.5,153.833 -0.5,-0.5 Z"/></g>
<g><path style="opacity:1" fill="#ff5731" d="M 648.5,40.5 C 652.587,40.2935 656.087,41.6269 659,44.5C 661.819,53.4381 664.485,62.4381 667,71.5C 667.388,72.428 668.055,73.0946 669,73.5C 698.831,67.0836 728.998,64.2503 759.5,65C 773.684,65.0356 787.018,68.369 799.5,75C 809.982,82.1226 816.315,91.956 818.5,104.5C 837.874,104.078 857.207,104.578 876.5,106C 891.279,107.53 904.279,113.03 915.5,122.5C 918.494,125.82 920.994,129.487 923,133.5C 937.333,175.833 951.667,218.167 966,260.5C 967.786,269.213 964.286,274.213 955.5,275.5C 903.247,263.942 851.247,264.942 799.5,278.5C 795.849,278.257 793.016,276.59 791,273.5C 784.691,258.234 778.191,243.068 771.5,228C 751.127,228.273 731.127,231.273 711.5,237C 710.422,237.674 709.755,238.674 709.5,240C 715.111,264.277 721.111,288.444 727.5,312.5C 726.125,321.195 721.125,324.362 712.5,322C 709.572,320.74 707.739,318.573 707,315.5C 685,228.167 663,140.833 641,53.5C 640.388,47.3937 642.888,43.0604 648.5,40.5 Z"/></g>
<g><path style="opacity:1" fill="#fffefe" d="M 727.5,85.5 C 741.171,85.3334 754.837,85.5001 768.5,86C 778.375,86.9515 786.875,90.7848 794,97.5C 808.309,134.096 822.809,170.596 837.5,207C 792.204,202.664 747.538,206.164 703.5,217.5C 693.094,176.708 682.76,135.875 672.5,95C 672.905,94.0546 673.572,93.3879 674.5,93C 692.228,89.8721 709.894,87.3721 727.5,85.5 Z"/></g>
<g><path style="opacity:1" fill="#fffdfd" d="M 831.5,124.5 C 848.626,123.885 865.626,125.052 882.5,128C 890.09,129.544 896.59,133.044 902,138.5C 915.525,175.908 928.358,213.575 940.5,251.5C 929.896,249.841 919.23,248.675 908.5,248C 884.454,247.207 860.454,247.54 836.5,249C 844.351,241.648 852.351,234.481 860.5,227.5C 862.468,225.395 863.468,222.895 863.5,220C 852,188.67 840,157.503 827.5,126.5C 828.949,125.828 830.282,125.161 831.5,124.5 Z"/></g>
<g><path style="opacity:1" fill="#ff8f75" d="M 812.5,226.5 C 806.31,226.177 800.31,226.51 794.5,227.5C 793.957,227.44 793.624,227.107 793.5,226.5C 799.988,225.183 806.322,225.183 812.5,226.5 Z"/></g>
<g><path style="opacity:1" fill="#fffbfa" d="M 812.5,226.5 C 817.887,226.405 823.22,226.905 828.5,228C 820.333,235.5 812.167,243 804,250.5C 800.339,243.011 797.172,235.345 794.5,227.5C 800.31,226.51 806.31,226.177 812.5,226.5 Z"/></g>
<g><path style="opacity:1" fill="#062343" d="M 691.5,358.5 C 700.207,358.037 703.707,362.037 702,370.5C 699.459,375.069 695.625,376.569 690.5,375C 683.518,369.057 683.852,363.557 691.5,358.5 Z"/></g>
<g><path style="opacity:1" fill="#072443" d="M 1077.5,358.5 C 1086.69,358.215 1090.19,362.548 1088,371.5C 1083.28,376.366 1078.28,376.699 1073,372.5C 1070.23,366.395 1071.73,361.728 1077.5,358.5 Z"/></g>
<g><path style="opacity:1" fill="#082444" d="M 1449.5,358.5 C 1459.59,358.564 1462.92,363.231 1459.5,372.5C 1454.27,376.82 1449.43,376.487 1445,371.5C 1443.38,365.923 1444.88,361.589 1449.5,358.5 Z"/></g>
<g><path style="opacity:1" fill="#032141" d="M 85.5,363.5 C 101.086,360.85 112.919,366.183 121,379.5C 123.456,389.087 122.789,398.42 119,407.5C 117.954,409.09 116.787,410.59 115.5,412C 118.026,415.026 120.36,418.193 122.5,421.5C 119.48,424.516 116.146,427.183 112.5,429.5C 109.312,427.146 106.645,424.312 104.5,421C 74.4083,424.576 61.575,411.409 66,381.5C 69.906,372.64 76.406,366.64 85.5,363.5 Z"/></g>
<g><path style="opacity:1" fill="#788899" d="M 1273.5,364.5 C 1257.5,364.5 1241.5,364.5 1225.5,364.5C 1225.5,368.833 1225.5,373.167 1225.5,377.5C 1224.51,373.03 1224.18,368.363 1224.5,363.5C 1241.01,363.17 1257.34,363.504 1273.5,364.5 Z"/></g>
<g><path style="opacity:1" fill="#7d8d9d" d="M 481.5,364.5 C 475.5,364.5 469.5,364.5 463.5,364.5C 463.5,383.167 463.5,401.833 463.5,420.5C 468.167,420.5 472.833,420.5 477.5,420.5C 472.695,421.487 467.695,421.821 462.5,421.5C 462.5,402.167 462.5,382.833 462.5,363.5C 469.022,363.177 475.355,363.51 481.5,364.5 Z"/></g>
<g><path style="opacity:1" fill="#011f3f" d="M 481.5,364.5 C 486.14,372.437 490.807,380.437 495.5,388.5C 500.193,380.437 504.86,372.437 509.5,364.5C 515.167,364.5 520.833,364.5 526.5,364.5C 526.5,383.167 526.5,401.833 526.5,420.5C 521.833,420.5 517.167,420.5 512.5,420.5C 512.667,408.829 512.5,397.162 512,385.5C 507.413,393.004 503.08,400.671 499,408.5C 496.534,409.777 494.034,409.777 491.5,408.5C 487,400.833 482.5,393.167 478,385.5C 477.5,397.162 477.333,408.829 477.5,420.5C 472.833,420.5 468.167,420.5 463.5,420.5C 463.5,401.833 463.5,383.167 463.5,364.5C 469.5,364.5 475.5,364.5 481.5,364.5 Z"/></g>
<g><path style="opacity:1" fill="#697b8e" d="M 509.5,364.5 C 515.31,363.51 521.31,363.177 527.5,363.5C 527.5,382.833 527.5,402.167 527.5,421.5C 522.305,421.821 517.305,421.487 512.5,420.5C 517.167,420.5 521.833,420.5 526.5,420.5C 526.5,401.833 526.5,383.167 526.5,364.5C 520.833,364.5 515.167,364.5 509.5,364.5 Z"/></g>
<g><path style="opacity:1" fill="#9eaab6" d="M 649.5,364.5 C 644.833,364.5 640.167,364.5 635.5,364.5C 635.5,383.167 635.5,401.833 635.5,420.5C 640.167,420.5 644.833,420.5 649.5,420.5C 644.695,421.487 639.695,421.821 634.5,421.5C 634.5,402.167 634.5,382.833 634.5,363.5C 639.695,363.179 644.695,363.513 649.5,364.5 Z"/></g>
<g><path style="opacity:1" fill="#012040" d="M 649.5,364.5 C 649.334,370.509 649.501,376.509 650,382.5C 658.282,375.617 666.282,375.951 674,383.5C 675.275,385.717 676.275,388.051 677,390.5C 677.5,400.494 677.666,410.494 677.5,420.5C 672.833,420.5 668.167,420.5 663.5,420.5C 663.826,411.983 663.493,403.65 662.5,395.5C 658.931,389.36 654.764,389.027 650,394.5C 649.5,403.16 649.334,411.827 649.5,420.5C 644.833,420.5 640.167,420.5 635.5,420.5C 635.5,401.833 635.5,383.167 635.5,364.5C 640.167,364.5 644.833,364.5 649.5,364.5 Z"/></g>
<g><path style="opacity:1" fill="#445a72" d="M 853.5,407.5 C 852.504,393.343 852.171,379.01 852.5,364.5C 848.167,364.5 843.833,364.5 839.5,364.5C 839.5,383.167 839.5,401.833 839.5,420.5C 853.167,420.5 866.833,420.5 880.5,420.5C 866.677,421.496 852.677,421.829 838.5,421.5C 838.5,402.167 838.5,382.833 838.5,363.5C 843.5,363.5 848.5,363.5 853.5,363.5C 853.5,378.167 853.5,392.833 853.5,407.5 Z"/></g>
<g><path style="opacity:1" fill="#001f3f" d="M 853.5,407.5 C 862.5,407.5 871.5,407.5 880.5,407.5C 880.5,411.833 880.5,416.167 880.5,420.5C 866.833,420.5 853.167,420.5 839.5,420.5C 839.5,401.833 839.5,383.167 839.5,364.5C 843.833,364.5 848.167,364.5 852.5,364.5C 852.171,379.01 852.504,393.343 853.5,407.5 Z"/></g>
<g><path style="opacity:1" fill="#001e3f" d="M 1273.5,364.5 C 1273.5,368.833 1273.5,373.167 1273.5,377.5C 1267.83,377.5 1262.17,377.5 1256.5,377.5C 1256.5,391.833 1256.5,406.167 1256.5,420.5C 1251.83,420.5 1247.17,420.5 1242.5,420.5C 1242.83,405.99 1242.5,391.657 1241.5,377.5C 1236.17,377.5 1230.83,377.5 1225.5,377.5C 1225.5,373.167 1225.5,368.833 1225.5,364.5C 1241.5,364.5 1257.5,364.5 1273.5,364.5 Z"/></g>
<g><path style="opacity:1" fill="#a5afbb" d="M 1532.5,364.5 C 1527.83,364.5 1523.17,364.5 1518.5,364.5C 1518.5,383.167 1518.5,401.833 1518.5,420.5C 1523.17,420.5 1527.83,420.5 1532.5,420.5C 1527.69,421.487 1522.69,421.821 1517.5,421.5C 1517.5,402.167 1517.5,382.833 1517.5,363.5C 1522.69,363.179 1527.69,363.513 1532.5,364.5 Z"/></g>
<g><path style="opacity:1" fill="#001e3f" d="M 1532.5,364.5 C 1532.5,383.167 1532.5,401.833 1532.5,420.5C 1527.83,420.5 1523.17,420.5 1518.5,420.5C 1518.5,401.833 1518.5,383.167 1518.5,364.5C 1523.17,364.5 1527.83,364.5 1532.5,364.5 Z"/></g>
<g><path style="opacity:1" fill="#6d7f92" d="M 1345.5,378.5 C 1344.52,375.375 1344.19,372.042 1344.5,368.5C 1340.17,368.5 1335.83,368.5 1331.5,368.5C 1331.81,372.042 1331.48,375.375 1330.5,378.5C 1330.5,374.833 1330.5,371.167 1330.5,367.5C 1335.5,367.5 1340.5,367.5 1345.5,367.5C 1345.5,371.167 1345.5,374.833 1345.5,378.5 Z"/></g>
<g><path style="opacity:1" fill="#acb6c0" d="M 298.5,368.5 C 293.833,368.5 289.167,368.5 284.5,368.5C 284.813,372.042 284.479,375.375 283.5,378.5C 283.5,374.833 283.5,371.167 283.5,367.5C 288.695,367.179 293.695,367.513 298.5,368.5 Z"/></g>
<g><path style="opacity:1" fill="#012040" d="M 298.5,368.5 C 298.5,371.833 298.5,375.167 298.5,378.5C 301.167,378.5 303.833,378.5 306.5,378.5C 306.5,382.833 306.5,387.167 306.5,391.5C 303.833,391.5 301.167,391.5 298.5,391.5C 298.334,396.511 298.501,401.511 299,406.5C 300.789,408.229 302.956,408.896 305.5,408.5C 305.5,412.5 305.5,416.5 305.5,420.5C 302.5,420.5 299.5,420.5 296.5,420.5C 290.839,420.422 287.005,417.756 285,412.5C 284.5,405.508 284.334,398.508 284.5,391.5C 282.5,391.5 280.5,391.5 278.5,391.5C 278.5,387.167 278.5,382.833 278.5,378.5C 280.167,378.5 281.833,378.5 283.5,378.5C 284.479,375.375 284.813,372.042 284.5,368.5C 289.167,368.5 293.833,368.5 298.5,368.5 Z"/></g>
<g><path style="opacity:1" fill="#062342" d="M 1345.5,378.5 C 1347.83,378.5 1350.17,378.5 1352.5,378.5C 1352.5,382.833 1352.5,387.167 1352.5,391.5C 1350.17,391.5 1347.83,391.5 1345.5,391.5C 1345.33,396.844 1345.5,402.177 1346,407.5C 1348.04,408.423 1350.21,408.756 1352.5,408.5C 1352.5,412.833 1352.5,417.167 1352.5,421.5C 1344.98,422.476 1338.48,420.476 1333,415.5C 1332.14,413.913 1331.47,412.246 1331,410.5C 1330.5,404.175 1330.33,397.842 1330.5,391.5C 1328.83,391.5 1327.17,391.5 1325.5,391.5C 1325.5,387.167 1325.5,382.833 1325.5,378.5C 1327.17,378.5 1328.83,378.5 1330.5,378.5C 1331.48,375.375 1331.81,372.042 1331.5,368.5C 1335.83,368.5 1340.17,368.5 1344.5,368.5C 1344.19,372.042 1344.52,375.375 1345.5,378.5 Z"/></g>
<g><path style="opacity:1" fill="#fafbfb" d="M 87.5,377.5 C 103.593,375.756 110.093,382.756 107,398.5C 103.029,406.724 96.5289,409.558 87.5,407C 84.6667,405.5 82.5,403.333 81,400.5C 77.4543,391.031 79.621,383.365 87.5,377.5 Z"/></g>
<g><path style="opacity:1" fill="#6a7c8f" d="M 1241.5,377.5 C 1242.5,391.657 1242.83,405.99 1242.5,420.5C 1247.17,420.5 1251.83,420.5 1256.5,420.5C 1251.69,421.487 1246.69,421.821 1241.5,421.5C 1241.5,406.833 1241.5,392.167 1241.5,377.5 Z"/></g>
<g><path style="opacity:1" fill="#042242" d="M 219.5,392.5 C 219.5,401.833 219.5,411.167 219.5,420.5C 215.5,420.5 211.5,420.5 207.5,420.5C 207.66,418.801 207.494,417.134 207,415.5C 206.283,416.044 205.783,416.711 205.5,417.5C 197.424,423.156 189.591,422.823 182,416.5C 177.341,408.019 179.175,401.519 187.5,397C 193.742,395.63 200.075,395.13 206.5,395.5C 206.152,391.655 203.985,389.655 200,389.5C 198.029,389.468 196.529,390.302 195.5,392C 190.5,392.667 185.5,392.667 180.5,392C 182.543,384.294 187.543,379.627 195.5,378C 201.886,376.791 207.886,377.791 213.5,381C 217.067,384.054 219.067,387.887 219.5,392.5 Z"/></g>
<g><path style="opacity:1" fill="#012040" d="M 271.5,391.5 C 271.5,401.167 271.5,410.833 271.5,420.5C 267.167,420.5 262.833,420.5 258.5,420.5C 258.826,412.316 258.492,404.316 257.5,396.5C 256.438,391.631 253.438,389.798 248.5,391C 246.536,392.451 245.203,394.284 244.5,396.5C 243.508,404.316 243.174,412.316 243.5,420.5C 239.167,420.5 234.833,420.5 230.5,420.5C 230.5,406.5 230.5,392.5 230.5,378.5C 234.833,378.5 239.167,378.5 243.5,378.5C 243.343,379.873 243.51,381.207 244,382.5C 249.714,377.386 256.214,376.22 263.5,379C 268.061,381.956 270.728,386.123 271.5,391.5 Z"/></g>
<g><path style="opacity:1" fill="#032141" d="M 426.5,420.5 C 421.833,420.5 417.167,420.5 412.5,420.5C 412.826,411.651 412.493,402.984 411.5,394.5C 410.476,390.653 408.143,389.653 404.5,391.5C 403.295,392.577 402.628,393.91 402.5,395.5C 401.507,403.65 401.174,411.983 401.5,420.5C 396.833,420.5 392.167,420.5 387.5,420.5C 387.666,411.494 387.5,402.494 387,393.5C 384.048,389.518 381.048,389.518 378,393.5C 377.5,402.494 377.334,411.494 377.5,420.5C 372.833,420.5 368.167,420.5 363.5,420.5C 363.5,406.5 363.5,392.5 363.5,378.5C 367.514,378.334 371.514,378.501 375.5,379C 376.191,380.067 376.691,381.234 377,382.5C 384.496,375.876 391.996,375.876 399.5,382.5C 408.056,375.511 416.223,375.844 424,383.5C 424.862,385.087 425.529,386.754 426,388.5C 426.5,399.161 426.667,409.828 426.5,420.5 Z"/></g>
<g><path style="opacity:1" fill="#052242" d="M 552.5,392.5 C 547.381,393.103 542.715,392.436 538.5,390.5C 540.434,383.405 545.101,379.238 552.5,378C 560.884,376.282 568.05,378.449 574,384.5C 575.275,386.717 576.275,389.051 577,391.5C 577.5,401.494 577.666,411.494 577.5,421.5C 573.167,421.5 568.833,421.5 564.5,421.5C 564.66,419.801 564.494,418.134 564,416.5C 558.731,421.245 552.564,422.745 545.5,421C 537.963,416.968 535.463,410.802 538,402.5C 539.873,400.291 542.04,398.458 544.5,397C 550.742,395.63 557.075,395.13 563.5,395.5C 562.707,390.224 559.707,388.391 554.5,390C 553.619,390.708 552.953,391.542 552.5,392.5 Z"/></g>
<g><path style="opacity:1" fill="#042241" d="M 601.5,377.5 C 607.892,376.791 613.892,377.957 619.5,381C 624.395,384.623 626.728,389.456 626.5,395.5C 622.154,395.666 617.821,395.499 613.5,395C 610.566,390.213 606.733,389.379 602,392.5C 598.408,398.101 598.908,403.268 603.5,408C 605.833,408.667 608.167,408.667 610.5,408C 611.357,407.311 612.023,406.478 612.5,405.5C 617.456,404.506 622.456,404.173 627.5,404.5C 626.62,413.214 621.953,418.714 613.5,421C 593.053,423.22 583.887,414.053 586,393.5C 588.685,385.65 593.852,380.316 601.5,377.5 Z"/></g>
<g><path style="opacity:1" fill="#022040" d="M 752.5,391.5 C 752.5,401.167 752.5,410.833 752.5,420.5C 748.167,420.5 743.833,420.5 739.5,420.5C 739.826,411.983 739.493,403.65 738.5,395.5C 735.024,389.234 730.857,388.901 726,394.5C 725.5,403.16 725.334,411.827 725.5,420.5C 720.833,420.5 716.167,420.5 711.5,420.5C 711.5,406.5 711.5,392.5 711.5,378.5C 715.833,378.5 720.167,378.5 724.5,378.5C 724.281,379.675 724.614,380.675 725.5,381.5C 734.277,375.681 742.443,376.347 750,383.5C 751.707,385.909 752.54,388.575 752.5,391.5 Z"/></g>
<g><path style="opacity:1" fill="#052242" d="M 789.5,407.5 C 794.032,407.182 798.366,407.515 802.5,408.5C 801.149,414.02 797.816,417.853 792.5,420C 770.048,424.55 759.881,415.383 762,392.5C 769.882,377.095 781.382,373.595 796.5,382C 802.522,387.899 804.855,395.066 803.5,403.5C 794.167,403.5 784.833,403.5 775.5,403.5C 775.393,405.903 776.393,407.736 778.5,409C 782.402,409.888 786.069,409.388 789.5,407.5 Z"/></g>
<g><path style="opacity:1" fill="#052342" d="M 928.5,403.5 C 919.143,403.168 909.81,403.502 900.5,404.5C 900.624,405.107 900.957,405.44 901.5,405.5C 902.654,408.586 904.988,409.919 908.5,409.5C 911.006,409.779 913.006,408.946 914.5,407C 929.947,403.736 932.28,407.402 921.5,418C 910.441,423.623 900.274,422.456 891,414.5C 884.222,402.774 885.389,391.941 894.5,382C 905.606,375.131 915.773,376.297 925,385.5C 928.136,391.035 929.303,397.035 928.5,403.5 Z"/></g>
<g><path style="opacity:1" fill="#042241" d="M 952.5,377.5 C 963.717,376.02 971.55,380.353 976,390.5C 976.5,400.828 976.666,411.161 976.5,421.5C 972.167,421.5 967.833,421.5 963.5,421.5C 963.66,419.801 963.494,418.134 963,416.5C 958.034,421.089 952.2,422.589 945.5,421C 936.918,416.93 934.418,410.43 938,401.5C 939.558,399.641 941.391,398.141 943.5,397C 950.133,396.001 956.8,395.168 963.5,394.5C 960.53,389.006 956.53,388.172 951.5,392C 946.845,392.499 942.179,392.666 937.5,392.5C 937.899,387.578 940.233,383.745 944.5,381C 947.309,379.907 949.976,378.74 952.5,377.5 Z"/></g>
<g><path style="opacity:1" fill="#032141" d="M 1005.5,377.5 C 1008.5,377.5 1011.5,377.5 1014.5,377.5C 1014.5,382.167 1014.5,386.833 1014.5,391.5C 1008.41,390.137 1003.91,392.137 1001,397.5C 1000.5,405.493 1000.33,413.493 1000.5,421.5C 995.833,421.5 991.167,421.5 986.5,421.5C 986.5,407.167 986.5,392.833 986.5,378.5C 990.833,378.5 995.167,378.5 999.5,378.5C 999.343,379.873 999.51,381.207 1000,382.5C 1001.73,380.598 1003.56,378.931 1005.5,377.5 Z"/></g>
<g><path style="opacity:1" fill="#042241" d="M 1042.5,377.5 C 1052.64,375.983 1059.47,379.983 1063,389.5C 1063.5,400.161 1063.67,410.828 1063.5,421.5C 1058.83,421.5 1054.17,421.5 1049.5,421.5C 1049.67,412.827 1049.5,404.16 1049,395.5C 1044.75,388.941 1040.42,388.941 1036,395.5C 1035.5,404.16 1035.33,412.827 1035.5,421.5C 1030.83,421.5 1026.17,421.5 1021.5,421.5C 1021.5,407.167 1021.5,392.833 1021.5,378.5C 1025.85,378.334 1030.18,378.501 1034.5,379C 1035.05,379.925 1035.71,380.758 1036.5,381.5C 1038.57,380.143 1040.57,378.81 1042.5,377.5 Z"/></g>
<g><path style="opacity:1" fill="#032141" d="M 1139.5,420.5 C 1134.83,420.5 1130.17,420.5 1125.5,420.5C 1125.83,411.983 1125.49,403.65 1124.5,395.5C 1121.75,389.652 1117.92,388.986 1113,393.5C 1111.55,402.726 1111.05,412.06 1111.5,421.5C 1106.83,421.5 1102.17,421.5 1097.5,421.5C 1097.5,407.167 1097.5,392.833 1097.5,378.5C 1101.88,378.174 1106.22,378.508 1110.5,379.5C 1110.81,380.308 1111.31,380.975 1112,381.5C 1124.67,373.788 1133.67,376.788 1139,390.5C 1139.5,400.494 1139.67,410.494 1139.5,420.5 Z"/></g>
<g><path style="opacity:1" fill="#042141" d="M 1162.5,377.5 C 1168.29,376.986 1173.63,378.319 1178.5,381.5C 1179.39,380.675 1179.72,379.675 1179.5,378.5C 1183.83,378.5 1188.17,378.5 1192.5,378.5C 1192.67,392.837 1192.5,407.171 1192,421.5C 1191.52,432.316 1186.02,438.816 1175.5,441C 1161.69,443.278 1153.03,437.778 1149.5,424.5C 1154.18,424.334 1158.85,424.501 1163.5,425C 1165.35,426.999 1167.68,427.832 1170.5,427.5C 1174.18,428.235 1176.68,426.901 1178,423.5C 1178.67,421.5 1178.67,419.5 1178,417.5C 1175.96,419.604 1173.46,420.771 1170.5,421C 1155.07,422.41 1147.4,415.243 1147.5,399.5C 1147.88,388.823 1152.88,381.49 1162.5,377.5 Z"/></g>
<g><path style="opacity:1" fill="#052242" d="M 1374.5,377.5 C 1393.82,376.324 1402.99,385.324 1402,404.5C 1400.68,413.148 1395.85,418.648 1387.5,421C 1366.01,423.511 1356.51,414.011 1359,392.5C 1362.11,385.225 1367.27,380.225 1374.5,377.5 Z"/></g>
<g><path style="opacity:1" fill="#012040" d="M 1425.5,397.5 C 1424.51,404.982 1424.17,412.648 1424.5,420.5C 1419.83,420.5 1415.17,420.5 1410.5,420.5C 1410.5,406.5 1410.5,392.5 1410.5,378.5C 1414.83,378.5 1419.17,378.5 1423.5,378.5C 1423.34,379.873 1423.51,381.207 1424,382.5C 1427.78,378.01 1432.61,376.343 1438.5,377.5C 1438.5,382.167 1438.5,386.833 1438.5,391.5C 1435.06,391.301 1431.73,391.801 1428.5,393C 1426.86,394.129 1425.86,395.629 1425.5,397.5 Z"/></g>
<g><path style="opacity:1" fill="#052242" d="M 1483.5,392.5 C 1478.38,393.103 1473.71,392.436 1469.5,390.5C 1473.04,381.708 1479.71,377.375 1489.5,377.5C 1498.72,377.525 1504.89,381.858 1508,390.5C 1508.5,400.828 1508.67,411.161 1508.5,421.5C 1504.17,421.5 1499.83,421.5 1495.5,421.5C 1495.66,419.801 1495.49,418.134 1495,416.5C 1489.73,421.245 1483.56,422.745 1476.5,421C 1469.22,417.269 1466.72,411.435 1469,403.5C 1470.99,399.51 1474.16,397.01 1478.5,396C 1483.82,395.501 1489.16,395.334 1494.5,395.5C 1493.92,390.195 1490.92,388.362 1485.5,390C 1484.62,390.708 1483.95,391.542 1483.5,392.5 Z"/></g>
<g><path style="opacity:1" fill="#022140" d="M 131.5,378.5 C 136.167,378.5 140.833,378.5 145.5,378.5C 145.334,387.506 145.5,396.506 146,405.5C 149.667,409.5 153.333,409.5 157,405.5C 157.5,396.506 157.666,387.506 157.5,378.5C 162.167,378.5 166.833,378.5 171.5,378.5C 171.906,389.564 171.406,400.564 170,411.5C 165.992,419.007 159.658,422.34 151,421.5C 141.74,422.041 135.407,418.041 132,409.5C 131.5,399.172 131.334,388.839 131.5,378.5 Z"/></g>
<g><path style="opacity:1" fill="#032141" d="M 313.5,378.5 C 318.167,378.5 322.833,378.5 327.5,378.5C 327.334,387.506 327.5,396.506 328,405.5C 331.667,409.5 335.333,409.5 339,405.5C 339.5,396.506 339.666,387.506 339.5,378.5C 344.167,378.5 348.833,378.5 353.5,378.5C 353.666,388.172 353.5,397.839 353,407.5C 350.258,417.553 343.591,422.22 333,421.5C 325.229,421.948 319.229,418.948 315,412.5C 313.591,401.23 313.091,389.896 313.5,378.5 Z"/></g>
<g><path style="opacity:1" fill="#8b99a8" d="M 363.5,378.5 C 363.5,392.5 363.5,406.5 363.5,420.5C 368.167,420.5 372.833,420.5 377.5,420.5C 372.695,421.487 367.695,421.821 362.5,421.5C 362.171,406.99 362.504,392.657 363.5,378.5 Z"/></g>
<g><path style="opacity:1" fill="#63768a" d="M 687.5,378.5 C 687.5,392.5 687.5,406.5 687.5,420.5C 691.833,420.5 696.167,420.5 700.5,420.5C 700.5,406.5 700.5,392.5 700.5,378.5C 701.496,392.657 701.829,406.99 701.5,421.5C 696.5,421.5 691.5,421.5 686.5,421.5C 686.171,406.99 686.504,392.657 687.5,378.5 Z"/></g>
<g><path style="opacity:1" fill="#001f3f" d="M 687.5,378.5 C 691.833,378.5 696.167,378.5 700.5,378.5C 700.5,392.5 700.5,406.5 700.5,420.5C 696.167,420.5 691.833,420.5 687.5,420.5C 687.5,406.5 687.5,392.5 687.5,378.5 Z"/></g>
<g><path style="opacity:1" fill="#8b99a8" d="M 711.5,378.5 C 711.5,392.5 711.5,406.5 711.5,420.5C 716.167,420.5 720.833,420.5 725.5,420.5C 720.695,421.487 715.695,421.821 710.5,421.5C 710.171,406.99 710.504,392.657 711.5,378.5 Z"/></g>
<g><path style="opacity:1" fill="#93a0ae" d="M 1073.5,378.5 C 1073.5,392.5 1073.5,406.5 1073.5,420.5C 1078.17,420.5 1082.83,420.5 1087.5,420.5C 1082.69,421.487 1077.69,421.821 1072.5,421.5C 1072.17,406.99 1072.5,392.657 1073.5,378.5 Z"/></g>
<g><path style="opacity:1" fill="#012040" d="M 1073.5,378.5 C 1078.17,378.5 1082.83,378.5 1087.5,378.5C 1087.5,392.5 1087.5,406.5 1087.5,420.5C 1082.83,420.5 1078.17,420.5 1073.5,420.5C 1073.5,406.5 1073.5,392.5 1073.5,378.5 Z"/></g>
<g><path style="opacity:1" fill="#0b2645" d="M 1279.5,378.5 C 1284.5,378.5 1289.5,378.5 1294.5,378.5C 1294.33,387.506 1294.5,396.506 1295,405.5C 1295.76,407.91 1297.42,408.91 1300,408.5C 1302.03,408.646 1303.7,407.98 1305,406.5C 1305.5,397.173 1305.67,387.839 1305.5,378.5C 1310.5,378.5 1315.5,378.5 1320.5,378.5C 1320.67,388.172 1320.5,397.839 1320,407.5C 1317.18,417.656 1310.51,422.323 1300,421.5C 1289.71,422.019 1283.04,417.353 1280,407.5C 1279.5,397.839 1279.33,388.172 1279.5,378.5 Z"/></g>
<g><path style="opacity:1" fill="#022140" d="M 1445.5,378.5 C 1450.17,378.5 1454.83,378.5 1459.5,378.5C 1459.5,392.833 1459.5,407.167 1459.5,421.5C 1454.83,421.5 1450.17,421.5 1445.5,421.5C 1445.5,407.167 1445.5,392.833 1445.5,378.5 Z"/></g>
<g><path style="opacity:1" fill="#f7f7f9" d="M 778.5,389.5 C 781.518,389.335 784.518,389.502 787.5,390C 789.037,391.11 789.703,392.61 789.5,394.5C 784.786,394.827 780.12,394.493 775.5,393.5C 776.524,392.148 777.524,390.815 778.5,389.5 Z"/></g>
<g><path style="opacity:1" fill="#f7f7f9" d="M 903.5,389.5 C 906.518,389.335 909.518,389.502 912.5,390C 913.687,391.019 914.687,392.186 915.5,393.5C 910.88,394.493 906.214,394.827 901.5,394.5C 901.392,392.486 902.058,390.82 903.5,389.5 Z"/></g>
<g><path style="opacity:1" fill="#f8f9f9" d="M 1166.5,390.5 C 1176.16,389.658 1179.99,393.991 1178,403.5C 1177.22,405.286 1176.05,406.786 1174.5,408C 1164.91,410.075 1160.74,406.241 1162,396.5C 1163.33,394.34 1164.83,392.34 1166.5,390.5 Z"/></g>
<g><path style="opacity:1" fill="#f7f8f9" d="M 1375.5,391.5 C 1382.94,389.431 1387.27,392.098 1388.5,399.5C 1387.88,406.984 1383.88,409.817 1376.5,408C 1371.5,402.847 1371.17,397.347 1375.5,391.5 Z"/></g>
<g><path style="opacity:1" fill="#aab4bf" d="M 538.5,390.5 C 542.715,392.436 547.381,393.103 552.5,392.5C 547.695,393.487 542.695,393.821 537.5,393.5C 537.263,392.209 537.596,391.209 538.5,390.5 Z"/></g>
<g><path style="opacity:1" fill="#acb5c0" d="M 1469.5,390.5 C 1473.71,392.436 1478.38,393.103 1483.5,392.5C 1478.69,393.487 1473.69,393.821 1468.5,393.5C 1468.26,392.209 1468.6,391.209 1469.5,390.5 Z"/></g>
<g><path style="opacity:1" fill="#8694a4" d="M 411.5,394.5 C 412.493,402.984 412.826,411.651 412.5,420.5C 417.167,420.5 421.833,420.5 426.5,420.5C 421.695,421.487 416.695,421.821 411.5,421.5C 411.5,412.5 411.5,403.5 411.5,394.5 Z"/></g>
<g><path style="opacity:1" fill="#7b8b9c" d="M 402.5,395.5 C 402.5,404.167 402.5,412.833 402.5,421.5C 397.305,421.821 392.305,421.487 387.5,420.5C 392.167,420.5 396.833,420.5 401.5,420.5C 401.174,411.983 401.507,403.65 402.5,395.5 Z"/></g>
<g><path style="opacity:1" fill="#8d9ba9" d="M 662.5,395.5 C 663.493,403.65 663.826,411.983 663.5,420.5C 668.167,420.5 672.833,420.5 677.5,420.5C 672.695,421.487 667.695,421.821 662.5,421.5C 662.5,412.833 662.5,404.167 662.5,395.5 Z"/></g>
<g><path style="opacity:1" fill="#65778b" d="M 752.5,391.5 C 753.494,401.319 753.827,411.319 753.5,421.5C 748.5,421.5 743.5,421.5 738.5,421.5C 738.5,412.833 738.5,404.167 738.5,395.5C 739.493,403.65 739.826,411.983 739.5,420.5C 743.833,420.5 748.167,420.5 752.5,420.5C 752.5,410.833 752.5,401.167 752.5,391.5 Z"/></g>
<g><path style="opacity:1" fill="#99a6b3" d="M 1124.5,395.5 C 1125.49,403.65 1125.83,411.983 1125.5,420.5C 1130.17,420.5 1134.83,420.5 1139.5,420.5C 1134.69,421.487 1129.69,421.821 1124.5,421.5C 1124.5,412.833 1124.5,404.167 1124.5,395.5 Z"/></g>
<g><path style="opacity:1" fill="#a3aeba" d="M 1425.5,397.5 C 1425.5,405.5 1425.5,413.5 1425.5,421.5C 1420.31,421.821 1415.31,421.487 1410.5,420.5C 1415.17,420.5 1419.83,420.5 1424.5,420.5C 1424.17,412.648 1424.51,404.982 1425.5,397.5 Z"/></g>
<g><path style="opacity:1" fill="#8a98a7" d="M 553.5,404.5 C 557.019,403.192 560.685,403.192 564.5,404.5C 564.376,405.107 564.043,405.44 563.5,405.5C 560.375,404.521 557.042,404.187 553.5,404.5 Z"/></g>
<g><path style="opacity:1" fill="#97a3b0" d="M 928.5,403.5 C 919.5,404.167 910.5,404.833 901.5,405.5C 900.957,405.44 900.624,405.107 900.5,404.5C 909.81,403.502 919.143,403.168 928.5,403.5 Z"/></g>
<g><path style="opacity:1" fill="#919eac" d="M 953.5,404.5 C 956.625,403.521 959.958,403.187 963.5,403.5C 963.737,404.791 963.404,405.791 962.5,406.5C 960.012,404.612 957.012,403.945 953.5,404.5 Z"/></g>
<g><path style="opacity:1" fill="#8c99a8" d="M 1484.5,404.5 C 1488.02,403.192 1491.69,403.192 1495.5,404.5C 1495.38,405.107 1495.04,405.44 1494.5,405.5C 1491.38,404.521 1488.04,404.187 1484.5,404.5 Z"/></g>
<g><path style="opacity:1" fill="#e7e9ed" d="M 196.5,403.5 C 199.833,403.5 203.167,403.5 206.5,403.5C 204.55,410.616 200.383,412.283 194,408.5C 193.294,406.045 194.127,404.378 196.5,403.5 Z"/></g>
<g><path style="opacity:1" fill="#f4f5f7" d="M 553.5,404.5 C 557.042,404.187 560.375,404.521 563.5,405.5C 562.351,409.003 559.851,410.669 556,410.5C 552.061,410.896 550.728,409.229 552,405.5C 552.383,404.944 552.883,404.611 553.5,404.5 Z"/></g>
<g><path style="opacity:1" fill="#f5f6f7" d="M 953.5,404.5 C 957.012,403.945 960.012,404.612 962.5,406.5C 959.751,410.171 956.084,411.337 951.5,410C 949.82,407.189 950.487,405.356 953.5,404.5 Z"/></g>
<g><path style="opacity:1" fill="#f5f6f7" d="M 1484.5,404.5 C 1488.04,404.187 1491.38,404.521 1494.5,405.5C 1493.35,409.003 1490.85,410.669 1487,410.5C 1483.06,410.896 1481.73,409.229 1483,405.5C 1483.38,404.944 1483.88,404.611 1484.5,404.5 Z"/></g>
<g><path style="opacity:1" fill="#4a6076" d="M 789.5,407.5 C 794.015,406.188 798.682,406.188 803.5,407.5C 803.376,408.107 803.043,408.44 802.5,408.5C 798.366,407.515 794.032,407.182 789.5,407.5 Z"/></g>
<g><path style="opacity:1" fill="#66798c" d="M 219.5,392.5 C 220.494,401.986 220.827,411.652 220.5,421.5C 215.833,421.5 211.167,421.5 206.5,421.5C 206.768,419.901 206.434,418.568 205.5,417.5C 205.783,416.711 206.283,416.044 207,415.5C 207.494,417.134 207.66,418.801 207.5,420.5C 211.5,420.5 215.5,420.5 219.5,420.5C 219.5,411.167 219.5,401.833 219.5,392.5 Z"/></g>
<g><path style="opacity:1" fill="#627588" d="M 230.5,378.5 C 230.5,392.5 230.5,406.5 230.5,420.5C 234.833,420.5 239.167,420.5 243.5,420.5C 243.174,412.316 243.508,404.316 244.5,396.5C 244.5,404.833 244.5,413.167 244.5,421.5C 239.5,421.5 234.5,421.5 229.5,421.5C 229.171,406.99 229.504,392.657 230.5,378.5 Z"/></g>
<g><path style="opacity:1" fill="#64778a" d="M 271.5,391.5 C 272.494,401.319 272.827,411.319 272.5,421.5C 267.5,421.5 262.5,421.5 257.5,421.5C 257.5,413.167 257.5,404.833 257.5,396.5C 258.492,404.316 258.826,412.316 258.5,420.5C 262.833,420.5 267.167,420.5 271.5,420.5C 271.5,410.833 271.5,401.167 271.5,391.5 Z"/></g>
<g><path style="opacity:1" fill="#7e8e9e" d="M 305.5,408.5 C 306.485,412.634 306.818,416.968 306.5,421.5C 302.958,421.813 299.625,421.479 296.5,420.5C 299.5,420.5 302.5,420.5 305.5,420.5C 305.5,416.5 305.5,412.5 305.5,408.5 Z"/></g>
</svg>
