<?xml version="1.0" encoding="UTF-8"?>
<!DOCTYPE svg PUBLIC "-//W3C//DTD SVG 1.1//EN" "http://www.w3.org/Graphics/SVG/1.1/DTD/svg11.dtd">
<svg xmlns="http://www.w3.org/2000/svg" version="1.1" width="300px" height="136px" style="shape-rendering:geometricPrecision; text-rendering:geometricPrecision; image-rendering:optimizeQuality; fill-rule:evenodd; clip-rule:evenodd" xmlns:xlink="http://www.w3.org/1999/xlink">
<g><path style="opacity:0.892" fill="#000000" d="M 265.5,-0.5 C 272.5,-0.5 279.5,-0.5 286.5,-0.5C 289.051,0.484444 291.718,1.48444 294.5,2.5C 295.833,5.83333 295.833,9.16667 294.5,12.5C 284.912,6.88018 275.078,6.21352 265,10.5C 262.615,14.4569 263.448,17.6236 267.5,20C 276.127,23.4288 284.46,27.4288 292.5,32C 295.476,34.8249 297.809,37.9915 299.5,41.5C 299.5,45.1667 299.5,48.8333 299.5,52.5C 296.947,58.8796 292.28,63.0462 285.5,65C 273.556,67.5592 261.889,66.7259 250.5,62.5C 249.803,58.6229 249.136,54.7896 248.5,51C 248.833,50.8333 249.167,50.6667 249.5,50.5C 258.698,56.8004 268.698,58.6338 279.5,56C 284.869,52.9375 285.869,48.7708 282.5,43.5C 274.197,39.6833 265.864,35.8499 257.5,32C 250.424,25.4817 248.59,17.6484 252,8.5C 255.517,3.83827 260.017,0.838272 265.5,-0.5 Z"/></g>
<g><path style="opacity:0.804" fill="#f28326" d="M 0.5,-0.5 C 0.833333,-0.5 1.16667,-0.5 1.5,-0.5C 35.5,0.833333 69.5,0.833333 103.5,-0.5C 103.833,-0.5 104.167,-0.5 104.5,-0.5C 105.656,24.4277 105.823,49.4277 105,74.5C 98.8467,103.463 82.3467,123.797 55.5,135.5C 53.5,135.5 51.5,135.5 49.5,135.5C 45.4042,133.888 41.2376,131.555 37,128.5C 36.6667,128.833 36.3333,129.167 36,129.5C 35.5776,127.574 34.4109,126.574 32.5,126.5C 15.0137,112.454 4.01366,94.7877 -0.5,73.5C -0.5,49.1667 -0.5,24.8333 -0.5,0.5C 0.166667,0.5 0.5,0.166667 0.5,-0.5 Z"/></g>
<g><path style="opacity:0.896" fill="#000000" d="M 119.5,0.5 C 124.599,0.174634 129.599,0.674634 134.5,2C 145.28,15.7258 155.446,29.8924 165,44.5C 165.5,29.8371 165.667,15.1705 165.5,0.5C 168.833,0.5 172.167,0.5 175.5,0.5C 175.5,21.8333 175.5,43.1667 175.5,64.5C 170.821,64.6658 166.155,64.4992 161.5,64C 150.258,50.0829 139.758,35.5829 130,20.5C 129.5,35.1629 129.333,49.8295 129.5,64.5C 126.167,64.5 122.833,64.5 119.5,64.5C 119.5,43.1667 119.5,21.8333 119.5,0.5 Z"/></g>
<g><path style="opacity:0.887" fill="#000000" d="M 186.5,0.5 C 191.43,0.197489 196.263,0.530822 201,1.5C 201.333,17.5 201.667,33.5 202,49.5C 207.33,57.8277 214.497,59.6611 223.5,55C 225.936,52.2934 227.436,49.1267 228,45.5C 228.5,30.5037 228.667,15.5037 228.5,0.5C 233.167,0.5 237.833,0.5 242.5,0.5C 242.958,17.9028 242.458,35.2361 241,52.5C 235.452,62.6122 226.786,67.2788 215,66.5C 200.233,67.8062 190.899,61.4729 187,47.5C 186.5,31.8369 186.333,16.1702 186.5,0.5 Z"/></g>
<g><path style="opacity:1" fill="#fe8b1b" d="M 102.5,2.5 C 69.1667,2.5 35.8333,2.5 2.5,2.5C 1.66795,25.3297 1.16795,48.3297 1,71.5C 0.500034,48.169 0.333367,24.8357 0.5,1.5C 35.1667,1.5 69.8333,1.5 104.5,1.5C 104.667,23.5025 104.5,45.5025 104,67.5C 103.832,45.6628 103.332,23.9961 102.5,2.5 Z"/></g>
<g><path style="opacity:1" fill="#1b3a76" d="M 2.5,2.5 C 35.8333,2.5 69.1667,2.5 102.5,2.5C 102.5,15.8333 102.5,29.1667 102.5,42.5C 69.1667,42.5 35.8333,42.5 2.5,42.5C 2.5,29.1667 2.5,15.8333 2.5,2.5 Z"/></g>
<g><path style="opacity:1" fill="#e78739" d="M 91.5,20.5 C 90.6236,20.3691 89.9569,20.7025 89.5,21.5C 90.1272,22.4168 90.4606,23.4168 90.5,24.5C 89.609,23.8902 88.609,23.5569 87.5,23.5C 89.7129,15.7581 87.0463,10.5914 79.5,8C 72.4544,7.41772 68.9544,10.5844 69,17.5C 70.0437,16.3774 70.7104,15.0441 71,13.5C 71.8159,12.1772 72.9826,11.5106 74.5,11.5C 81.0667,8.67862 85.0667,10.8453 86.5,18C 86.3868,20.3987 85.3868,22.2321 83.5,23.5C 82.8333,20.8333 82.1667,20.8333 81.5,23.5C 75.3313,16.8805 69.1646,16.8805 63,23.5C 60.119,31.7381 62.9524,36.7381 71.5,38.5C 73.3893,38.5637 75.0559,38.0637 76.5,37C 69.4052,38.1324 65.0718,35.2991 63.5,28.5C 63.7573,26.3076 64.7573,24.6409 66.5,23.5C 65.0131,26.9133 65.1797,30.2467 67,33.5C 69.7922,35.9351 72.2922,35.9351 74.5,33.5C 76.5,34.8333 78.1667,36.5 79.5,38.5C 71.481,42.2159 65.3144,40.2159 61,32.5C 59.3157,26.6222 60.9824,21.9555 66,18.5C 69.4063,6.29466 76.4063,3.628 87,10.5C 88.6832,13.7927 90.1832,17.126 91.5,20.5 Z"/></g>
<g><path style="opacity:1" fill="#1b3a77" d="M 74.5,11.5 C 80.1189,10.0632 83.4523,12.0632 84.5,17.5C 80.1667,18.8333 75.8333,18.8333 71.5,17.5C 71.615,15.0532 72.615,13.0532 74.5,11.5 Z"/></g>
<g><path style="opacity:1" fill="#e99552" d="M 11.5,9.5 C 24.1881,10.812 36.8548,10.812 49.5,9.5C 48.209,9.26269 47.209,9.59603 46.5,10.5C 41.57,10.1975 36.7367,10.5308 32,11.5C 31.1794,18.3464 31.346,25.013 32.5,31.5C 31.1667,32.8333 29.8333,32.8333 28.5,31.5C 29.8181,24.9888 29.8181,18.3222 28.5,11.5C 24.3393,9.81483 20.006,9.14816 15.5,9.5C 14.1667,9.5 12.8333,9.5 11.5,9.5 Z"/></g>
<g><path style="opacity:1" fill="#fff2e7" d="M 80.5,18.5 C 81.9778,18.238 83.3112,18.5713 84.5,19.5C 82.9255,20.6309 81.2588,20.7975 79.5,20C 80.056,19.6174 80.3893,19.1174 80.5,18.5 Z"/></g>
<g><path style="opacity:1" fill="#fff1e5" d="M 81.5,23.5 C 79.8236,24.7103 78.4903,24.2103 77.5,22C 73.25,19.5832 69.5834,20.0832 66.5,23.5C 64.7573,24.6409 63.7573,26.3076 63.5,28.5C 65.0718,35.2991 69.4052,38.1324 76.5,37C 75.0559,38.0637 73.3893,38.5637 71.5,38.5C 62.9524,36.7381 60.119,31.7381 63,23.5C 69.1646,16.8805 75.3313,16.8805 81.5,23.5 Z"/></g>
<g><path style="opacity:1" fill="#ea8c41" d="M 81.5,23.5 C 82.1667,23.5 82.8333,23.5 83.5,23.5C 81.9009,25.309 79.9009,26.6424 77.5,27.5C 78,27.8333 78.5,28.1667 79,28.5C 82.4717,27.8502 85.305,26.1835 87.5,23.5C 86.9688,25.5441 85.8022,27.2107 84,28.5C 83.338,30.8127 82.838,33.146 82.5,35.5C 89.8324,35.1572 92.4991,31.4905 90.5,24.5C 93.383,28.7049 92.7164,32.5382 88.5,36C 81.3818,38.1124 77.0485,35.6124 75.5,28.5C 75.7605,26.8129 76.4272,25.3129 77.5,24C 76.552,23.5172 75.552,23.3505 74.5,23.5C 74.5,26.8333 74.5,30.1667 74.5,33.5C 73.2082,31.7451 72.2082,29.7451 71.5,27.5C 69.8152,26.0473 68.1486,24.714 66.5,23.5C 69.5834,20.0832 73.25,19.5832 77.5,22C 78.4903,24.2103 79.8236,24.7103 81.5,23.5 Z"/></g>
<g><path style="opacity:1" fill="#ffebdb" d="M 72.5,23.5 C 74.0948,25.3738 73.7615,26.2071 71.5,26C 68.6907,22.1738 69.0241,21.3404 72.5,23.5 Z"/></g>
<g><path style="opacity:1" fill="#5e4f57" d="M 74.5,23.5 C 73.8333,23.5 73.1667,23.5 72.5,23.5C 73.1667,20.8333 73.8333,20.8333 74.5,23.5 Z"/></g>
<g><path style="opacity:1" fill="#6c5455" d="M 83.5,23.5 C 82.8333,23.5 82.1667,23.5 81.5,23.5C 82.1667,20.8333 82.8333,20.8333 83.5,23.5 Z"/></g>
<g><path style="opacity:1" fill="#ffefe1" d="M 87.5,23.5 C 85.305,26.1835 82.4717,27.8502 79,28.5C 78.5,28.1667 78,27.8333 77.5,27.5C 79.9009,26.6424 81.9009,25.309 83.5,23.5C 85.3868,22.2321 86.3868,20.3987 86.5,18C 85.0667,10.8453 81.0667,8.67862 74.5,11.5C 72.9826,11.5106 71.8159,12.1772 71,13.5C 70.7104,15.0441 70.0437,16.3774 69,17.5C 68.9544,10.5844 72.4544,7.41772 79.5,8C 87.0463,10.5914 89.7129,15.7581 87.5,23.5 Z"/></g>
<g><path style="opacity:1" fill="#e18033" d="M 91.5,20.5 C 94.4025,22.3047 95.7359,24.9714 95.5,28.5C 95.534,31.4334 94.7007,34.1 93,36.5C 92.3292,37.2524 91.4959,37.5858 90.5,37.5C 91.4959,37.5858 92.3292,37.2524 93,36.5C 94.7007,34.1 95.534,31.4334 95.5,28.5C 95.7359,24.9714 94.4025,22.3047 91.5,20.5 Z"/></g>
<g><path style="opacity:1" fill="#193a78" d="M 66.5,23.5 C 68.1486,24.714 69.8152,26.0473 71.5,27.5C 72.2082,29.7451 73.2082,31.7451 74.5,33.5C 72.2922,35.9351 69.7922,35.9351 67,33.5C 65.1797,30.2467 65.0131,26.9133 66.5,23.5 Z"/></g>
<g><path style="opacity:1" fill="#f7892c" d="M 11.5,9.5 C 12.8333,9.5 14.1667,9.5 15.5,9.5C 14.791,10.404 13.791,10.7373 12.5,10.5C 12.5,17.1667 12.5,23.8333 12.5,30.5C 17.8947,30.2665 23.228,30.5998 28.5,31.5C 29.8333,32.8333 31.1667,32.8333 32.5,31.5C 37.6671,30.1904 42.8338,30.1904 48,31.5C 48.1667,28 48.3333,24.5 48.5,21C 48.4877,17.0982 47.821,13.5982 46.5,10.5C 47.209,9.59603 48.209,9.26269 49.5,9.5C 49.8315,18.5246 49.4982,27.5246 48.5,36.5C 42.398,34.995 36.398,35.3284 30.5,37.5C 24.3871,35.4006 18.2204,35.0673 12,36.5C 11.5002,27.5062 11.3336,18.5062 11.5,9.5 Z"/></g>
<g><path style="opacity:1" fill="#eaedf3" d="M 46.5,10.5 C 47.821,13.5982 48.4877,17.0982 48.5,21C 48.3333,24.5 48.1667,28 48,31.5C 42.8338,30.1904 37.6671,30.1904 32.5,31.5C 31.346,25.013 31.1794,18.3464 32,11.5C 36.7367,10.5308 41.57,10.1975 46.5,10.5 Z"/></g>
<g><path style="opacity:1" fill="#6984ae" d="M 44.5,25.5 C 45.0431,25.56 45.3764,25.8933 45.5,26.5C 42.5719,27.4841 39.5719,27.8174 36.5,27.5C 39.1667,26.8333 41.8333,26.1667 44.5,25.5 Z"/></g>
<g><path style="opacity:1" fill="#0a2f72" d="M 44.5,25.5 C 41.8333,26.1667 39.1667,26.8333 36.5,27.5C 35.6236,27.6309 34.9569,27.2975 34.5,26.5C 37.7683,25.513 41.1016,25.1796 44.5,25.5 Z"/></g>
<g><path style="opacity:1" fill="#0d2c71" d="M 34.5,21.5 C 38.1817,21.3347 41.8484,21.5014 45.5,22C 42.1103,22.2463 38.777,22.7463 35.5,23.5C 34.7025,23.0431 34.3691,22.3764 34.5,21.5 Z"/></g>
<g><path style="opacity:1" fill="#283f7e" d="M 36.5,16.5 C 39.6074,16.3512 42.6074,16.8512 45.5,18C 42.1103,18.2463 38.777,18.7463 35.5,19.5C 35.1667,19.1667 34.8333,18.8333 34.5,18.5C 35.2427,17.8182 35.9094,17.1515 36.5,16.5 Z"/></g>
<g><path style="opacity:1" fill="#2f4b86" d="M 35.5,12.5 C 39.0479,12.0949 42.3812,12.5949 45.5,14C 42.1103,14.2463 38.777,14.7463 35.5,15.5C 34.4376,14.5754 34.4376,13.5754 35.5,12.5 Z"/></g>
<g><path style="opacity:1" fill="#ebebef" d="M 15.5,9.5 C 20.006,9.14816 24.3393,9.81483 28.5,11.5C 29.8181,18.3222 29.8181,24.9888 28.5,31.5C 23.228,30.5998 17.8947,30.2665 12.5,30.5C 12.5,23.8333 12.5,17.1667 12.5,10.5C 13.791,10.7373 14.791,10.404 15.5,9.5 Z"/></g>
<g><path style="opacity:1" fill="#768fb5" d="M 16.5,25.5 C 18.8333,26.1667 21.1667,26.8333 23.5,27.5C 20.7531,27.8134 18.0865,27.48 15.5,26.5C 15.6236,25.8933 15.9569,25.56 16.5,25.5 Z"/></g>
<g><path style="opacity:1" fill="#123476" d="M 16.5,25.5 C 20.3751,25.0845 24.0418,25.5845 27.5,27C 26.2068,27.49 24.8734,27.6567 23.5,27.5C 21.1667,26.8333 18.8333,26.1667 16.5,25.5 Z"/></g>
<g><path style="opacity:1" fill="#07296e" d="M 16.5,22.5 C 17.964,21.8401 19.6307,21.5068 21.5,21.5C 23.7125,21.4123 25.7125,21.9123 27.5,23C 23.8913,22.7616 20.2246,22.5949 16.5,22.5 Z"/></g>
<g><path style="opacity:1" fill="#2e4381" d="M 16.5,16.5 C 20.5443,15.9579 24.211,16.7912 27.5,19C 25.2037,19.0909 22.8704,18.9243 20.5,18.5C 18.6672,18.4146 17.3339,17.7479 16.5,16.5 Z"/></g>
<g><path style="opacity:1" fill="#2d4a86" d="M 16.5,12.5 C 20.3935,12.1098 24.0602,12.7765 27.5,14.5C 25.288,15.1135 22.9546,15.1135 20.5,14.5C 18.6672,14.4146 17.3339,13.7479 16.5,12.5 Z"/></g>
<g><path style="opacity:1" fill="#fff1e6" d="M 91.5,20.5 C 95.6866,26.3977 95.3532,32.0644 90.5,37.5C 86.8815,38.2436 83.2148,38.577 79.5,38.5C 78.1667,36.5 76.5,34.8333 74.5,33.5C 74.5,30.1667 74.5,26.8333 74.5,23.5C 75.552,23.3505 76.552,23.5172 77.5,24C 76.4272,25.3129 75.7605,26.8129 75.5,28.5C 77.0485,35.6124 81.3818,38.1124 88.5,36C 92.7164,32.5382 93.383,28.7049 90.5,24.5C 90.4606,23.4168 90.1272,22.4168 89.5,21.5C 89.9569,20.7025 90.6236,20.3691 91.5,20.5 Z"/></g>
<g><path style="opacity:1" fill="#ffecda" d="M 79.5,29.5 C 81.9725,30.7487 82.1391,32.4153 80,34.5C 79.5065,32.8659 79.3398,31.1992 79.5,29.5 Z"/></g>
<g><path style="opacity:1" fill="#203b76" d="M 87.5,23.5 C 88.609,23.5569 89.609,23.8902 90.5,24.5C 92.4991,31.4905 89.8324,35.1572 82.5,35.5C 82.838,33.146 83.338,30.8127 84,28.5C 85.8022,27.2107 86.9688,25.5441 87.5,23.5 Z"/></g>
<g><path style="opacity:1" fill="#db853f" d="M 90.5,37.5 C 87.0633,40.8577 83.3966,41.191 79.5,38.5C 83.2148,38.577 86.8815,38.2436 90.5,37.5 Z"/></g>
<g><path style="opacity:1" fill="#f7f7f9" d="M 2.5,42.5 C 35.8333,42.5 69.1667,42.5 102.5,42.5C 106.197,68.555 100.03,91.8884 84,112.5C 75.4295,122.243 64.9295,128.91 52.5,132.5C 34.5897,126.423 21.0897,115.09 12,98.5C 3.30708,80.8259 0.140414,62.1593 2.5,42.5 Z"/></g>
<g><path style="opacity:1" fill="#1b3e7a" d="M 55.5,67.5 C 55.1667,67.5 54.8333,67.5 54.5,67.5C 53.1779,67.33 52.0113,67.6634 51,68.5C 49.8303,71.505 48.6636,74.505 47.5,77.5C 46.914,77.2907 46.414,76.9574 46,76.5C 46.1069,79.5574 44.9402,81.8907 42.5,83.5C 41.914,83.2907 41.414,82.9574 41,82.5C 40.861,85.4453 39.6943,87.7786 37.5,89.5C 36.8333,89.5 36.1667,89.5 35.5,89.5C 33.3106,87.7756 32.1439,85.4422 32,82.5C 30.8872,84.7996 29.3872,85.1329 27.5,83.5C 24.8916,83.9228 22.5583,84.9228 20.5,86.5C 18.2012,82.091 16.8678,77.4243 16.5,72.5C 18.7247,75.2624 20.7247,78.2624 22.5,81.5C 27.8333,83.5 29.5,81.8333 27.5,76.5C 26.8333,76.8333 26.1667,77.1667 25.5,77.5C 24.1886,72.2204 21.3553,67.8871 17,64.5C 15.9914,62.9751 15.4914,61.3084 15.5,59.5C 16.8308,62.1267 18.6642,64.46 21,66.5C 19.5878,64.0073 19.0878,61.3406 19.5,58.5C 20.1279,56.7419 21.1279,55.2419 22.5,54C 21.1667,53 21.1667,52 22.5,51C 25.3464,50.2286 28.1798,49.3953 31,48.5C 33.1454,48.396 34.9788,49.0627 36.5,50.5C 41.4208,47.921 46.2542,48.2543 51,51.5C 51.6172,52.4491 51.4506,53.2825 50.5,54C 51.8721,55.2419 52.8721,56.7419 53.5,58.5C 52.1667,59.8333 52.1667,61.1667 53.5,62.5C 53.0233,63.4776 52.3567,64.3109 51.5,65C 52.8584,65.9344 54.1917,66.7677 55.5,67.5 Z"/></g>
<g><path style="opacity:1" fill="#2c4982" d="M 61.5,56.5 C 61.6107,55.8826 61.944,55.3826 62.5,55C 66.5,54.6667 70.5,54.3333 74.5,54C 68.7235,51.4907 63.5569,52.3241 59,56.5C 58.51,57.7932 58.3433,59.1266 58.5,60.5C 56.6461,56.4427 57.9795,53.6093 62.5,52C 71.4851,50.9531 80.4851,50.6197 89.5,51C 91.4211,51.3603 93.0878,52.1936 94.5,53.5C 89.8245,54.8399 85.1578,56.1732 80.5,57.5C 74.3147,55.4246 67.9814,55.0913 61.5,56.5 Z"/></g>
<g><path style="opacity:1" fill="#475780" d="M 15.5,59.5 C 14.8592,57.9577 13.8592,56.6243 12.5,55.5C 11.646,56.5217 10.646,57.3551 9.5,58C 10.4132,59.4139 10.4132,60.9139 9.5,62.5C 6.75858,59.4247 7.09192,56.5914 10.5,54C 10.1667,53.6667 9.83333,53.3333 9.5,53C 13.9709,52.7223 15.9709,54.8889 15.5,59.5 Z"/></g>
<g><path style="opacity:1" fill="#ef8023" d="M 40.5,69.5 C 39.5,69.5 38.5,69.5 37.5,69.5C 38.4387,66.019 39.772,62.6857 41.5,59.5C 40.3112,58.5713 38.9778,58.238 37.5,58.5C 37.5,60.8333 37.5,63.1667 37.5,65.5C 36.448,65.3505 35.448,65.5172 34.5,66C 35.3366,67.0113 35.67,68.1779 35.5,69.5C 34.5,69.5 33.5,69.5 32.5,69.5C 31.0438,67.2906 29.5438,64.9573 28,62.5C 28.4012,59.9387 28.2345,57.2721 27.5,54.5C 31.2845,53.8703 34.9512,53.537 38.5,53.5C 40.7094,54.1062 42.876,54.7728 45,55.5C 44.7727,57.5741 44.9394,59.5741 45.5,61.5C 42.9062,63.7248 41.2395,66.3915 40.5,69.5 Z"/></g>
<g><path style="opacity:1" fill="#ef8022" d="M 15.5,59.5 C 15.4914,61.3084 15.9914,62.9751 17,64.5C 21.3553,67.8871 24.1886,72.2204 25.5,77.5C 26.1667,77.1667 26.8333,76.8333 27.5,76.5C 29.5,81.8333 27.8333,83.5 22.5,81.5C 20.7247,78.2624 18.7247,75.2624 16.5,72.5C 16.2503,70.326 15.2503,68.6594 13.5,67.5C 13.6716,66.5084 13.3382,65.8417 12.5,65.5C 12.5,63.5 11.5,62.5 9.5,62.5C 10.4132,60.9139 10.4132,59.4139 9.5,58C 10.646,57.3551 11.646,56.5217 12.5,55.5C 13.8592,56.6243 14.8592,57.9577 15.5,59.5 Z"/></g>
<g><path style="opacity:1" fill="#3c547e" d="M 86.5,58.5 C 89.3035,57.3622 92.3035,57.1955 95.5,58C 96.056,58.3826 96.3893,58.8826 96.5,59.5C 93.2356,58.6758 89.9023,58.3424 86.5,58.5 Z"/></g>
<g><path style="opacity:1" fill="#805b53" d="M 31.5,58.5 C 32.675,58.281 33.675,58.6143 34.5,59.5C 32.9483,60.7979 31.9483,60.4646 31.5,58.5 Z"/></g>
<g><path style="opacity:1" fill="#6a545b" d="M 40.5,69.5 C 40.5,70.1667 40.1667,70.5 39.5,70.5C 36.9179,70.0254 34.9179,70.6921 33.5,72.5C 32.596,71.791 32.2627,70.791 32.5,69.5C 33.5,69.5 34.5,69.5 35.5,69.5C 35.67,68.1779 35.3366,67.0113 34.5,66C 35.448,65.5172 36.448,65.3505 37.5,65.5C 37.5,63.1667 37.5,60.8333 37.5,58.5C 38.9778,58.238 40.3112,58.5713 41.5,59.5C 39.772,62.6857 38.4387,66.019 37.5,69.5C 38.5,69.5 39.5,69.5 40.5,69.5 Z"/></g>
<g><path style="opacity:1" fill="#42608f" d="M 58.5,60.5 C 59.8333,61.1667 60.8333,62.1667 61.5,63.5C 59.5,63.5 58.5,62.5 58.5,60.5 Z"/></g>
<g><path style="opacity:1" fill="#586386" d="M 61.5,56.5 C 61.33,57.8221 61.6634,58.9887 62.5,60C 70.5904,61.6002 78.5904,61.1002 86.5,58.5C 79.3418,62.1243 71.6751,63.291 63.5,62C 60.5897,60.8271 59.9231,58.9938 61.5,56.5 Z"/></g>
<g><path style="opacity:1" fill="#51516f" d="M 9.5,62.5 C 11.5,62.5 12.5,63.5 12.5,65.5C 11.1667,64.8333 10.1667,63.8333 9.5,62.5 Z"/></g>
<g><path style="opacity:1" fill="#546387" d="M 54.5,67.5 C 54.8333,67.5 55.1667,67.5 55.5,67.5C 65.8387,67.6665 76.172,67.4998 86.5,67C 90.8944,67.497 93.2277,65.6637 93.5,61.5C 85.7076,62.9268 77.8743,64.2602 70,65.5C 66.8502,65.6397 64.0169,64.973 61.5,63.5C 71.1837,64.0392 80.6837,63.0392 90,60.5C 94.9336,59.7561 96.4336,61.5894 94.5,66C 92.6079,66.9734 90.6079,67.6401 88.5,68C 76.9924,68.8259 65.6591,68.6593 54.5,67.5 Z"/></g>
<g><path style="opacity:1" fill="#555f81" d="M 96.5,59.5 C 97.1174,59.6107 97.6174,59.944 98,60.5C 99.2206,65.9705 97.0539,69.4705 91.5,71C 88.3248,70.9467 85.6581,71.78 83.5,73.5C 82.596,72.791 82.2627,71.791 82.5,70.5C 86.7018,70.6161 90.7018,69.7827 94.5,68C 97.6051,65.7461 98.2717,62.9128 96.5,59.5 Z"/></g>
<g><path style="opacity:1" fill="#ee7f22" d="M 61.5,56.5 C 59.9231,58.9938 60.5897,60.8271 63.5,62C 71.6751,63.291 79.3418,62.1243 86.5,58.5C 89.9023,58.3424 93.2356,58.6758 96.5,59.5C 98.2717,62.9128 97.6051,65.7461 94.5,68C 90.7018,69.7827 86.7018,70.6161 82.5,70.5C 82.2627,71.791 82.596,72.791 83.5,73.5C 83.5,73.8333 83.5,74.1667 83.5,74.5C 83.3342,79.1785 83.5008,83.8452 84,88.5C 84.3826,89.056 84.8826,89.3893 85.5,89.5C 86.1408,90.4822 86.8075,91.4822 87.5,92.5C 84.4728,97.2211 81.9728,102.221 80,107.5C 76.7153,109.683 73.5487,109.683 70.5,107.5C 69.3595,106.575 69.3595,105.741 70.5,105C 72.7078,104.809 74.7078,104.309 76.5,103.5C 82.3957,97.2943 81.7291,91.961 74.5,87.5C 72.9634,83.6266 70.63,80.2932 67.5,77.5C 65.7441,79.3657 63.7441,80.6991 61.5,81.5C 56.8394,82.4972 52.1727,83.4972 47.5,84.5C 47.6602,86.1992 47.4935,87.8659 47,89.5C 44.8882,92.7271 43.0549,96.0604 41.5,99.5C 40.0937,99.9731 39.427,100.973 39.5,102.5C 38.6618,102.842 38.3284,103.508 38.5,104.5C 35.8832,108.253 32.2165,109.753 27.5,109C 26.7069,107.915 26.0402,106.748 25.5,105.5C 28.0272,104.786 30.5272,104.12 33,103.5C 34.6904,98.8656 36.1904,94.1989 37.5,89.5C 39.6943,87.7786 40.861,85.4453 41,82.5C 41.414,82.9574 41.914,83.2907 42.5,83.5C 44.9402,81.8907 46.1069,79.5574 46,76.5C 46.414,76.9574 46.914,77.2907 47.5,77.5C 48.6636,74.505 49.8303,71.505 51,68.5C 52.0113,67.6634 53.1779,67.33 54.5,67.5C 65.6591,68.6593 76.9924,68.8259 88.5,68C 90.6079,67.6401 92.6079,66.9734 94.5,66C 96.4336,61.5894 94.9336,59.7561 90,60.5C 80.6837,63.0392 71.1837,64.0392 61.5,63.5C 60.8333,62.1667 59.8333,61.1667 58.5,60.5C 58.3433,59.1266 58.51,57.7932 59,56.5C 63.5569,52.3241 68.7235,51.4907 74.5,54C 70.5,54.3333 66.5,54.6667 62.5,55C 61.944,55.3826 61.6107,55.8826 61.5,56.5 Z"/></g>
<g><path style="opacity:1" fill="#4f6793" d="M 13.5,67.5 C 15.2503,68.6594 16.2503,70.326 16.5,72.5C 14.7497,71.3406 13.7497,69.674 13.5,67.5 Z"/></g>
<g><path style="opacity:1" fill="#de7b2d" d="M 39.5,70.5 C 39.5858,71.4959 39.2524,72.3292 38.5,73C 36.6131,73.7796 34.9464,73.6129 33.5,72.5C 34.9179,70.6921 36.9179,70.0254 39.5,70.5 Z"/></g>
<g><path style="opacity:0.402" fill="#040100" d="M 152.5,77.5 C 153.833,77.5 155.167,77.5 156.5,77.5C 156.5,78.8333 156.5,80.1667 156.5,81.5C 155.167,81.5 153.833,81.5 152.5,81.5C 152.5,80.1667 152.5,78.8333 152.5,77.5 Z"/></g>
<g><path style="opacity:0.61" fill="#000000" d="M 194.5,77.5 C 195.5,77.5 196.5,77.5 197.5,77.5C 197.5,82.8333 197.5,88.1667 197.5,93.5C 196.5,93.5 195.5,93.5 194.5,93.5C 194.5,88.1667 194.5,82.8333 194.5,77.5 Z"/></g>
<g><path style="opacity:0.447" fill="#050100" d="M 231.5,77.5 C 233.346,77.2222 234.68,77.8888 235.5,79.5C 234.68,81.1112 233.346,81.7778 231.5,81.5C 231.5,80.1667 231.5,78.8333 231.5,77.5 Z"/></g>
<g><path style="opacity:0.382" fill="#040100" d="M 273.5,77.5 C 274.833,77.5 276.167,77.5 277.5,77.5C 277.5,78.8333 277.5,80.1667 277.5,81.5C 276.167,81.5 274.833,81.5 273.5,81.5C 273.5,80.1667 273.5,78.8333 273.5,77.5 Z"/></g>
<g><path style="opacity:1" fill="#436395" d="M 83.5,74.5 C 84.2656,79.3634 84.9322,84.3634 85.5,89.5C 84.8826,89.3893 84.3826,89.056 84,88.5C 83.5008,83.8452 83.3342,79.1785 83.5,74.5 Z"/></g>
<g><path style="opacity:0.668" fill="#000000" d="M 119.5,78.5 C 120.873,78.3433 122.207,78.51 123.5,79C 124.874,81.5829 126.374,84.0829 128,86.5C 128.497,83.854 128.664,81.1873 128.5,78.5C 129.5,78.5 130.5,78.5 131.5,78.5C 131.5,83.5 131.5,88.5 131.5,93.5C 130.022,93.762 128.689,93.4287 127.5,92.5C 126.253,89.6714 124.753,87.0048 123,84.5C 122.502,87.4816 122.335,90.4816 122.5,93.5C 121.5,93.5 120.5,93.5 119.5,93.5C 119.5,88.5 119.5,83.5 119.5,78.5 Z"/></g>
<g><path style="opacity:0.57" fill="#000000" d="M 204.5,78.5 C 205.833,78.5 207.167,78.5 208.5,78.5C 208.5,82.5 208.5,86.5 208.5,90.5C 210.167,90.5 211.833,90.5 213.5,90.5C 213.5,86.5 213.5,82.5 213.5,78.5C 214.833,78.5 216.167,78.5 217.5,78.5C 217.665,82.1817 217.499,85.8484 217,89.5C 216.06,92.4417 214.06,93.7751 211,93.5C 208.966,93.6464 207.299,92.9797 206,91.5C 204.71,87.2695 204.21,82.9362 204.5,78.5 Z"/></g>
<g><path style="opacity:0.571" fill="#000000" d="M 146.5,79.5 C 147.5,79.5 148.5,79.5 149.5,79.5C 149.626,81.1998 150.293,82.6998 151.5,84C 149.742,86.2673 149.242,88.7673 150,91.5C 151.813,90.3909 152.646,91.0576 152.5,93.5C 150.396,93.7989 148.396,93.4656 146.5,92.5C 144.653,83.3624 143.653,83.6957 143.5,93.5C 140.482,93.6646 137.482,93.498 134.5,93C 132.835,89.0116 134.168,86.5116 138.5,85.5C 137.443,85.0941 136.109,85.0941 134.5,85.5C 134.5,84.5 134.5,83.5 134.5,82.5C 137.806,80.891 140.639,81.5576 143,84.5C 143.772,83.1509 144.939,82.3176 146.5,82C 145.402,81.2303 145.402,80.397 146.5,79.5 Z M 138.5,88.5 C 140.657,89.0533 140.49,90.0533 138,91.5C 136.205,90.2805 136.372,89.2805 138.5,88.5 Z"/></g>
<g><path style="opacity:0.607" fill="#000000" d="M 280.5,79.5 C 281.5,79.5 282.5,79.5 283.5,79.5C 283.5,80.5 283.5,81.5 283.5,82.5C 285.5,82.5 287.5,82.5 289.5,82.5C 290.08,89.6178 291.246,89.9511 293,83.5C 294.011,82.6634 295.178,82.33 296.5,82.5C 295.238,87.2832 293.572,91.9499 291.5,96.5C 290.15,97.9501 288.484,98.6168 286.5,98.5C 286.888,96.3153 287.888,94.482 289.5,93C 288.333,90.1667 287.167,87.3333 286,84.5C 283.545,86.3741 283.045,88.7075 284.5,91.5C 286.214,90.3915 286.881,91.0582 286.5,93.5C 284.533,93.7394 282.699,93.4061 281,92.5C 280.822,89.4582 279.988,86.6249 278.5,84C 279.707,82.6998 280.374,81.1998 280.5,79.5 Z"/></g>
<g><path style="opacity:0.629" fill="#010000" d="M 162.5,81.5 C 169.464,82.9332 171.131,86.7666 167.5,93C 160.672,94.8241 157.506,92.3241 158,85.5C 159.397,83.9297 160.897,82.5964 162.5,81.5 Z M 161.5,85.5 C 167.175,85.8597 167.842,87.8597 163.5,91.5C 161.717,89.9775 161.051,87.9775 161.5,85.5 Z"/></g>
<g><path style="opacity:0.57" fill="#000000" d="M 175.5,81.5 C 177.17,81.7512 178.67,82.4178 180,83.5C 181.316,86.6883 181.816,90.0217 181.5,93.5C 180.167,93.5 178.833,93.5 177.5,93.5C 177.5,90.8333 177.5,88.1667 177.5,85.5C 176.178,85.33 175.011,85.6634 174,86.5C 173.503,88.8098 173.337,91.1432 173.5,93.5C 172.5,93.5 171.5,93.5 170.5,93.5C 170.5,89.8333 170.5,86.1667 170.5,82.5C 172.415,82.7845 174.081,82.4511 175.5,81.5 Z"/></g>
<g><path style="opacity:0.613" fill="#000000" d="M 186.5,81.5 C 188.679,81.84 190.512,82.84 192,84.5C 192.498,87.4816 192.665,90.4816 192.5,93.5C 189.482,93.6646 186.482,93.498 183.5,93C 181.835,89.0116 183.168,86.5116 187.5,85.5C 186.443,85.0941 185.109,85.0941 183.5,85.5C 183.5,84.5 183.5,83.5 183.5,82.5C 184.791,82.7373 185.791,82.404 186.5,81.5 Z M 187.5,88.5 C 188.713,89.4971 188.546,90.4971 187,91.5C 185.205,90.2805 185.372,89.2805 187.5,88.5 Z"/></g>
<g><path style="opacity:0.639" fill="#010000" d="M 224.5,81.5 C 226.03,82.0668 227.53,82.7334 229,83.5C 229.498,86.8168 229.665,90.1501 229.5,93.5C 228.5,93.5 227.5,93.5 226.5,93.5C 226.5,90.8333 226.5,88.1667 226.5,85.5C 225.167,85.5 223.833,85.5 222.5,85.5C 222.5,88.1667 222.5,90.8333 222.5,93.5C 221.5,93.5 220.5,93.5 219.5,93.5C 219.5,89.8333 219.5,86.1667 219.5,82.5C 221.415,82.7845 223.081,82.4511 224.5,81.5 Z"/></g>
<g><path style="opacity:0.605" fill="#000000" d="M 246.5,84.5 C 252.737,80.1414 256.404,81.8081 257.5,89.5C 255.143,89.3367 252.81,89.5034 250.5,90C 251.025,90.6924 251.692,91.1924 252.5,91.5C 253.736,90.7542 255.07,90.4208 256.5,90.5C 256.5,91.5 256.5,92.5 256.5,93.5C 248.727,95.3926 245.394,92.3926 246.5,84.5 Z M 251.5,84.5 C 252.289,84.7828 252.956,85.2828 253.5,86C 252.167,86.6667 250.833,86.6667 249.5,86C 250.416,85.7216 251.082,85.2216 251.5,84.5 Z"/></g>
<g><path style="opacity:0.631" fill="#020000" d="M 262.5,81.5 C 264.124,81.3601 265.29,82.0267 266,83.5C 269.349,80.5971 271.516,81.2638 272.5,85.5C 267.979,85.3262 267.645,85.9929 271.5,87.5C 273.36,92.9262 271.36,94.9262 265.5,93.5C 265.281,92.325 265.614,91.325 266.5,90.5C 270.508,91.1081 270.508,90.4414 266.5,88.5C 265.614,87.675 265.281,86.675 265.5,85.5C 264.178,85.33 263.011,85.6634 262,86.5C 261.503,88.8098 261.337,91.1432 261.5,93.5C 260.5,93.5 259.5,93.5 258.5,93.5C 258.5,89.8333 258.5,86.1667 258.5,82.5C 260.099,82.7678 261.432,82.4345 262.5,81.5 Z"/></g>
<g><path style="opacity:0.575" fill="#000000" d="M 153.5,82.5 C 154.5,82.5 155.5,82.5 156.5,82.5C 156.5,86.1667 156.5,89.8333 156.5,93.5C 155.5,93.5 154.5,93.5 153.5,93.5C 153.5,89.8333 153.5,86.1667 153.5,82.5 Z"/></g>
<g><path style="opacity:0.673" fill="#070100" d="M 235.5,84.5 C 235.5,87.5 235.5,90.5 235.5,93.5C 234.167,93.5 232.833,93.5 231.5,93.5C 231.5,89.8333 231.5,86.1667 231.5,82.5C 233.199,82.5271 234.533,83.1938 235.5,84.5 Z"/></g>
<g><path style="opacity:0.599" fill="#010000" d="M 246.5,84.5 C 244.928,87.2154 243.928,90.2154 243.5,93.5C 241.856,93.7135 240.356,93.3802 239,92.5C 238.295,89.5243 237.129,86.8577 235.5,84.5C 236.183,82.8235 237.517,82.1568 239.5,82.5C 240.124,90.2446 241.457,90.4112 243.5,83C 245.157,82.2748 246.157,82.7748 246.5,84.5 Z"/></g>
<g><path style="opacity:0.503" fill="#000000" d="M 273.5,82.5 C 274.833,82.5 276.167,82.5 277.5,82.5C 277.5,86.1667 277.5,89.8333 277.5,93.5C 276.167,93.5 274.833,93.5 273.5,93.5C 273.5,89.8333 273.5,86.1667 273.5,82.5 Z"/></g>
<g><path style="opacity:1" fill="#ef8022" d="M 71.5,91.5 C 69.9091,94.3516 68.5758,97.3516 67.5,100.5C 66.3263,101.514 65.6596,102.847 65.5,104.5C 63.1346,105.008 60.8013,105.675 58.5,106.5C 53.1466,102.566 54.1466,100.733 61.5,101C 62.8613,99.4157 63.528,97.5824 63.5,95.5C 65.1376,94.2954 65.4709,92.9621 64.5,91.5C 63.4187,89.236 62.0854,87.0693 60.5,85C 63.8174,82.6854 67.3174,82.1854 71,83.5C 70.5078,86.319 70.6744,88.9856 71.5,91.5 Z"/></g>
<g><path style="opacity:1" fill="#4e4f75" d="M 74.5,87.5 C 73.603,86.4019 72.7697,86.4019 72,87.5C 71.51,88.7932 71.3433,90.1266 71.5,91.5C 70.6744,88.9856 70.5078,86.319 71,83.5C 67.3174,82.1854 63.8174,82.6854 60.5,85C 62.0854,87.0693 63.4187,89.236 64.5,91.5C 62.1606,89.8272 60.1606,87.8272 58.5,85.5C 57.4763,86.8532 56.143,87.5198 54.5,87.5C 56.6353,85.106 59.3019,83.4393 62.5,82.5C 62.3764,81.8933 62.0431,81.56 61.5,81.5C 63.7441,80.6991 65.7441,79.3657 67.5,77.5C 70.63,80.2932 72.9634,83.6266 74.5,87.5 Z"/></g>
<g><path style="opacity:1" fill="#536b96" d="M 74.5,87.5 C 81.7291,91.961 82.3957,97.2943 76.5,103.5C 77.2946,100.45 78.2946,97.4496 79.5,94.5C 77.3951,92.4084 75.7284,90.0751 74.5,87.5 Z"/></g>
<g><path style="opacity:1" fill="#253f7b" d="M 61.5,81.5 C 62.0431,81.56 62.3764,81.8933 62.5,82.5C 59.3019,83.4393 56.6353,85.106 54.5,87.5C 52.0272,87.6043 51.3606,88.6043 52.5,90.5C 49.8333,91.1667 48.1667,92.8333 47.5,95.5C 45.4714,96.8435 43.4714,98.1769 41.5,99.5C 43.0549,96.0604 44.8882,92.7271 47,89.5C 47.4935,87.8659 47.6602,86.1992 47.5,84.5C 52.1727,83.4972 56.8394,82.4972 61.5,81.5 Z"/></g>
<g><path style="opacity:1" fill="#23407d" d="M 71.5,91.5 C 72.6266,92.1217 73.6266,92.955 74.5,94C 73.2863,96.6987 70.953,98.8654 67.5,100.5C 68.5758,97.3516 69.9091,94.3516 71.5,91.5 Z"/></g>
<g><path style="opacity:1" fill="#53658c" d="M 41.5,99.5 C 41.573,101.027 40.9063,102.027 39.5,102.5C 39.427,100.973 40.0937,99.9731 41.5,99.5 Z"/></g>
<g><path style="opacity:0.556" fill="#000000" d="M 135.5,100.5 C 136.5,100.5 137.5,100.5 138.5,100.5C 138.52,102.143 137.853,103.476 136.5,104.5C 137.311,105.216 137.978,106.05 138.5,107C 136.773,110.276 136.106,113.776 136.5,117.5C 135.167,117.5 133.833,117.5 132.5,117.5C 132.894,113.776 132.227,110.276 130.5,107C 132.068,104.667 133.735,102.5 135.5,100.5 Z"/></g>
<g><path style="opacity:0.621" fill="#010000" d="M 147.5,101.5 C 150.588,101.197 152.254,102.53 152.5,105.5C 150.712,105.215 149.045,105.548 147.5,106.5C 149.422,107.711 151.255,109.044 153,110.5C 154.415,115.08 152.749,117.414 148,117.5C 146.272,117.546 144.772,117.046 143.5,116C 145.25,114.681 147.25,114.181 149.5,114.5C 147.377,111.883 145.377,109.05 143.5,106C 144.344,103.993 145.677,102.493 147.5,101.5 Z"/></g>
<g><path style="opacity:0.431" fill="#030000" d="M 154.5,101.5 C 155.833,101.5 157.167,101.5 158.5,101.5C 158.5,102.5 158.5,103.5 158.5,104.5C 157.167,104.5 155.833,104.5 154.5,104.5C 154.5,103.5 154.5,102.5 154.5,101.5 Z"/></g>
<g><path style="opacity:1" fill="#465680" d="M 63.5,95.5 C 63.528,97.5824 62.8613,99.4157 61.5,101C 54.1466,100.733 53.1466,102.566 58.5,106.5C 60.8013,105.675 63.1346,105.008 65.5,104.5C 65.3893,105.117 65.056,105.617 64.5,106C 60.8542,107.453 57.1875,107.62 53.5,106.5C 52.8333,105.167 52.1667,103.833 51.5,102.5C 54.4693,100.333 57.8026,98.9992 61.5,98.5C 61.9424,97.2613 62.6091,96.2613 63.5,95.5 Z"/></g>
<g><path style="opacity:1" fill="#3d5181" d="M 85.5,89.5 C 87.5952,90.412 89.5952,91.5787 91.5,93C 89.4282,95.1676 87.2615,97.3342 85,99.5C 83.8824,102.855 82.3824,106.022 80.5,109C 76.8542,110.453 73.1875,110.62 69.5,109.5C 68.4378,108.23 67.4378,107.063 66.5,106C 69.4473,103.836 72.7806,103.002 76.5,103.5C 74.7078,104.309 72.7078,104.809 70.5,105C 69.3595,105.741 69.3595,106.575 70.5,107.5C 73.5487,109.683 76.7153,109.683 80,107.5C 81.9728,102.221 84.4728,97.2211 87.5,92.5C 86.8075,91.4822 86.1408,90.4822 85.5,89.5 Z"/></g>
<g><path style="opacity:0.598" fill="#000000" d="M 122.5,105.5 C 128.765,105.363 131.265,108.363 130,114.5C 125.785,118.833 122.119,118.499 119,113.5C 118.279,109.946 119.446,107.28 122.5,105.5 Z M 123.5,108.5 C 126.709,109.013 127.709,110.68 126.5,113.5C 125.311,114.429 123.978,114.762 122.5,114.5C 122.325,112.379 122.659,110.379 123.5,108.5 Z"/></g>
<g><path style="opacity:0.498" fill="#010000" d="M 154.5,105.5 C 155.822,105.33 156.989,105.663 158,106.5C 158.499,110.152 158.665,113.818 158.5,117.5C 157.167,117.5 155.833,117.5 154.5,117.5C 154.5,113.5 154.5,109.5 154.5,105.5 Z"/></g>
<g><path style="opacity:0.6" fill="#000000" d="M 160.5,105.5 C 162.482,106.817 164.482,106.817 166.5,105.5C 168.029,105.529 169.196,106.196 170,107.5C 170.498,110.817 170.665,114.15 170.5,117.5C 169.5,117.5 168.5,117.5 167.5,117.5C 167.664,114.813 167.497,112.146 167,109.5C 166,108.167 165,108.167 164,109.5C 163.503,112.146 163.336,114.813 163.5,117.5C 162.5,117.5 161.5,117.5 160.5,117.5C 160.5,113.5 160.5,109.5 160.5,105.5 Z"/></g>
<g><path style="opacity:0.611" fill="#000000" d="M 175.5,105.5 C 177.674,105.92 179.674,105.92 181.5,105.5C 182.662,110.131 182.828,114.798 182,119.5C 179.174,121.34 176.007,122.006 172.5,121.5C 172.5,120.5 172.5,119.5 172.5,118.5C 174.924,118.808 177.257,118.474 179.5,117.5C 176.663,118.135 174.163,117.135 172,114.5C 170.98,110.553 172.147,107.553 175.5,105.5 Z M 176.5,108.5 C 179.513,109.356 180.18,111.189 178.5,114C 177.552,114.483 176.552,114.649 175.5,114.5C 175.325,112.379 175.659,110.379 176.5,108.5 Z"/></g>
<g><path style="opacity:0.64" fill="#000000" d="M 186.5,105.5 C 188.591,105.318 190.591,105.652 192.5,106.5C 193.833,110.167 193.833,113.833 192.5,117.5C 190.328,117.324 187.995,117.157 185.5,117C 183.113,114.047 183.779,111.714 187.5,110C 185.218,108.916 184.884,107.416 186.5,105.5 Z M 187.5,112.5 C 188.675,112.281 189.675,112.614 190.5,113.5C 188.948,114.798 187.948,114.465 187.5,112.5 Z"/></g>
<g><path style="opacity:0.607" fill="#000000" d="M 195.5,105.5 C 197.597,106.353 199.597,106.353 201.5,105.5C 203.187,105.76 204.687,106.427 206,107.5C 206.667,110.167 206.667,112.833 206,115.5C 203.925,117.648 201.592,117.982 199,116.5C 198.506,118.134 198.34,119.801 198.5,121.5C 197.5,121.5 196.5,121.5 195.5,121.5C 195.5,116.167 195.5,110.833 195.5,105.5 Z M 200.5,108.5 C 202.484,108.484 203.484,109.484 203.5,111.5C 201.989,115.435 200.322,115.435 198.5,111.5C 199.193,110.482 199.859,109.482 200.5,108.5 Z"/></g>
<g><path style="opacity:0.616" fill="#000000" d="M 211.5,105.5 C 219.605,106.543 221.272,110.377 216.5,117C 209.333,118.5 206.5,115.667 208,108.5C 209.145,107.364 210.312,106.364 211.5,105.5 Z M 211.5,108.5 C 215.068,108.759 216.401,110.759 215.5,114.5C 210.719,114.833 209.386,112.833 211.5,108.5 Z"/></g>
<g><path style="opacity:0.584" fill="#000000" d="M 227.5,108.5 C 226.178,108.33 225.011,108.663 224,109.5C 223.503,112.146 223.336,114.813 223.5,117.5C 222.5,117.5 221.5,117.5 220.5,117.5C 220.176,113.445 220.509,109.445 221.5,105.5C 223.326,105.92 225.326,105.92 227.5,105.5C 227.5,106.5 227.5,107.5 227.5,108.5 Z"/></g>
<g><path style="opacity:0.594" fill="#000000" d="M 227.5,108.5 C 233.401,103.615 237.068,104.948 238.5,112.5C 235.813,112.336 233.146,112.503 230.5,113C 232.333,114.788 234.333,114.954 236.5,113.5C 237.429,114.689 237.762,116.022 237.5,117.5C 230.002,118.999 226.668,115.999 227.5,108.5 Z"/></g>
<g><path style="opacity:1" fill="#495b86" d="M 35.5,89.5 C 36.1667,89.5 36.8333,89.5 37.5,89.5C 36.1904,94.1989 34.6904,98.8656 33,103.5C 30.5272,104.12 28.0272,104.786 25.5,105.5C 26.0402,106.748 26.7069,107.915 27.5,109C 32.2165,109.753 35.8832,108.253 38.5,104.5C 38.7035,106.39 38.0368,107.89 36.5,109C 32.527,110.499 28.527,110.666 24.5,109.5C 23.8333,108.167 23.1667,106.833 22.5,105.5C 25.484,103.999 28.6506,102.999 32,102.5C 33.6358,98.2898 34.8025,93.9564 35.5,89.5 Z"/></g>
<g><path style="opacity:0.008" fill="#1c0b03" d="M 32.5,126.5 C 31.8333,127.167 31.8333,127.167 32.5,126.5 Z"/></g>
</svg>
